<svg width="140" height="200" viewBox="0 0 210 297" xmlns="http://www.w3.org/2000/svg">
  <!-- Paper Background -->
  <rect width="210" height="297" fill="#ffffff" stroke="#e2e8f0" stroke-width="1"/>
  
  <!-- Header -->
  <rect x="20" y="20" width="40" height="20" rx="2" fill="#cbd5e1"/>
  <rect x="70" y="20" width="100" height="8" rx="2" fill="#334155"/>
  <rect x="70" y="32" width="60" height="4" rx="1" fill="#94a3b8"/>
  <rect x="70" y="38" width="50" height="4" rx="1" fill="#94a3b8"/>

  <!-- Customer Info -->
  <rect x="20" y="60" width="80" height="25" rx="2" fill="#f1f5f9"/>
  <rect x="110" y="60" width="80" height="25" rx="2" fill="#f1f5f9"/>

  <!-- Items Table -->
  <rect x="20" y="100" width="170" height="10" rx="1" fill="#334155"/>
  
  <rect x="20" y="115" width="170" height="6" rx="1" fill="#f8fafc"/>
  <rect x="20" y="123" width="170" height="6" rx="1" fill="#f8fafc"/>
  <rect x="20" y="131" width="170" height="6" rx="1" fill="#f8fafc"/>
  <rect x="20" y="139" width="170" height="6" rx="1" fill="#f8fafc"/>

  <!-- Totals -->
  <rect x="120" y="160" width="70" height="30" rx="2" fill="#f1f5f9"/>
  <rect x="130" y="165" width="20" height="4" fill="#94a3b8"/>
  <rect x="170" y="165" width="15" height="4" fill="#64748b"/>
  <rect x="130" y="175" width="20" height="4" fill="#94a3b8"/>
  <rect x="170" y="175" width="15" height="4" fill="#64748b"/>
  <rect x="130" y="185" width="20" height="4" fill="#334155"/>
  <rect x="170" y="185" width="15" height="4" fill="#334155"/>

  <!-- Footer -->
  <rect x="20" y="270" width="170" height="1" fill="#cbd5e1"/>
  <rect x="50" y="275" width="110" height="4" rx="1" fill="#e2e8f0"/>
</svg>
